# xmcd CD database file
#
# Track frame offsets:
#	150
#	23760
#	48647
#	64933
#	80957
#	95549
#	127431
#	147566
#	168082
#	199888
#	216864
#	224784
#	252186
#
# Disc length: 3770 seconds
#
# Revision: 0
# Processed by: cddbd v1.5.2PL0 Copyright (c) Steve Scherf et al.
# Submitted via: CDex 1.51
#
DISCID=d80eb80d
DTITLE=Trio Elf - We Three Are Elf
DYEAR=2006
DGENRE=Jazz
TTITLE0=Four
TTITLE1=Take Five
TTITLE2=Vera Cruz
TTITLE3=Elfants
TTITLE4=We are 12
TTITLE5=Bang-Ma Gang
TTITLE6=Off Minor
TTITLE7=Why? Because!
TTITLE8=No Goodbyes
TTITLE9=Flim
TTITLE10=S-Elf
TTITLE11=Sunshower
TTITLE12=Fruta Boa
EXTD=YEAR: 2006
EXTT0=
EXTT1=
EXTT2=
EXTT3=
EXTT4=
EXTT5=
EXTT6=
EXTT7=
EXTT8=
EXTT9=
EXTT10=
EXTT11=
EXTT12=
PLAYORDER=
